# xmcd
#
# Track frame offsets: 
#        187
#        7625
#        20375
#        28125
#        41250
#        53825
#        66875
#        75200
#        86750
#        103920
#        121725
#        135900
#        151650
#        163700
#        170450
#        181017
#        194882
#        210575
#        220700
#        235125
#        254250
#        264312
#
# Disc length: 3810 seconds
#
# Revision: 2
# Processed by: cddbd v1.4PL0 Copyright (c) Steve Scherf et al.
# Submitted via: ExactAudioCopy v0.95a1
#
DISCID=0f0ee016
DTITLE=The Stanley Brothers - Clinch Mountain Bluegrass
DYEAR=1994
DGENRE=Bluegrass
TTITLE0=Introduction/Oscar Brand
TTITLE1=Orange Blossom Special
TTITLE2=How Mountain Girls Can Love
TTITLE3=Model T (comedy routine)
TTITLE4=Man of Constant Sorrow
TTITLE5=Gathering Flowers for the Master's Bouquet
TTITLE6=Choo Choo Coming
TTITLE7=All Aboard for Baltimore (comedy routine)
TTITLE8=White Dove
TTITLE9=Hard Times
TTITLE10=Jordan
TTITLE11=Rank Stranger
TTITLE12=Little Birdie
TTITLE13=Shout Little Luly
TTITLE14=Clinch Mountain Backstep
TTITLE15=Hard Times
TTITLE16=Little Maggie
TTITLE17=How Mountain Girls Can Love
TTITLE18=Man of Constant Sorrow
TTITLE19=Little Glass of Wine
TTITLE20=Big Tildy
TTITLE21=Orange Blossom Special
EXTD=
EXTT0=
EXTT1=
EXTT2=
EXTT3=
EXTT4=
EXTT5=
EXTT6=
EXTT7=
EXTT8=
EXTT9=
EXTT10=
EXTT11=
EXTT12=
EXTT13=
EXTT14=
EXTT15=
EXTT16=
EXTT17=
EXTT18=
EXTT19=
EXTT20=
EXTT21=
PLAYORDER=
